<?xml version="1.0" encoding="utf-8"?>
<svg width="34" height="34" viewBox="0 0 34 34" fill="none" xmlns="http://www.w3.org/2000/svg">
  <g clip-path="url(#clip0_3431_2144)">
    <path d="M32 0H2C0.89543 0 0 0.89543 0 2V32C0 33.1046 0.89543 34 2 34H32C33.1046 34 34 33.1046 34 32V2C34 0.89543 33.1046 0 32 0Z" fill="#1C58D9"/>
    <path d="M 16.246 17.828 C 14.659 17.828 13.666 16.109 14.459 14.733 C 14.549 14.578 14.659 14.432 14.787 14.306 L 16.917 12.177 C 18.04 11.054 19.957 11.567 20.368 13.101 C 20.559 13.815 20.356 14.574 19.835 15.095 L 19.605 15.325 L 19.013 14.737 L 19.247 14.503 C 19.725 14.023 19.723 13.246 19.245 12.766 C 18.757 12.302 17.993 12.302 17.507 12.766 L 15.377 14.894 C 14.897 15.374 14.897 16.153 15.377 16.633 C 15.865 17.097 16.63 17.097 17.115 16.633 L 17.705 17.223 C 17.32 17.612 16.795 17.828 16.246 17.828 Z" style="stroke-width: 1; fill: rgb(255, 255, 255);"/>
    <path d="M 19.583 16.992 C 17.994 16.994 17.001 15.274 17.796 13.899 C 17.886 13.742 17.996 13.598 18.124 13.47 L 18.354 13.24 L 18.944 13.83 L 18.714 14.06 C 18.232 14.54 18.232 15.319 18.714 15.799 C 19.2 16.263 19.965 16.263 20.453 15.799 C 20.561 15.691 22.425 13.826 22.58 13.671 C 23.06 13.191 23.06 12.413 22.58 11.933 C 22.095 11.469 21.33 11.469 20.842 11.933 L 20.252 11.343 C 21.377 10.22 23.294 10.737 23.703 12.271 C 23.894 12.983 23.689 13.74 23.17 14.261 C 23.013 14.418 21.151 16.281 21.043 16.389 C 20.655 16.778 20.13 16.994 19.583 16.992 Z" style="stroke-width: 1; fill: rgb(255, 255, 255);"/>
    <path d="M 21.273 22.414 L 12.933 22.414 C 12.473 22.414 12.099 22.04 12.099 21.58 L 12.099 13.24 C 12.099 12.78 12.473 12.407 12.933 12.407 L 14.6 12.407 L 14.6 13.24 L 12.933 13.24 L 12.933 21.58 L 21.273 21.58 L 21.273 17.409 L 22.106 17.409 L 22.106 21.58 C 22.106 22.04 21.733 22.414 21.273 22.414 Z" style="stroke-width: 1; fill: rgb(255, 255, 255);"/>
  </g>
  <defs>
    <clipPath id="clip0_3431_2144">
      <rect width="34" height="34" fill="white"/>
    </clipPath>
  </defs>
  <g id="icon">
    <path d="M -75.643 93.975 C -170.86 93.995 -230.39 -9.068 -182.8 -91.538 C -177.39 -100.91 -170.78 -109.54 -163.12 -117.19 L -35.488 -244.79 C 31.846 -312.13 146.827 -281.33 171.477 -189.35 C 182.918 -146.66 170.714 -101.11 139.464 -69.855 L 125.657 -56.04 L 90.262 -91.363 L 104.204 -105.31 C 132.868 -134.12 132.825 -180.69 104.107 -209.44 C 74.933 -237.28 29.03 -237.28 -0.143 -209.44 L -127.76 -81.843 C -156.55 -53.064 -156.55 -6.391 -127.76 22.387 C -98.587 50.229 -52.684 50.229 -23.511 22.387 L 11.847 57.75 C -11.31 81.022 -42.813 94.066 -75.643 93.975 Z" style="stroke-width: 25;"/>
    <path d="M 124.357 43.975 C 29.14 43.995 -30.392 -59.068 17.199 -141.54 C 22.609 -150.91 29.225 -159.54 36.879 -167.19 L 50.694 -181 L 86.052 -145.64 L 72.237 -131.83 C 43.453 -103.05 43.453 -56.387 72.237 -27.608 C 101.41 0.234 147.313 0.234 176.487 -27.608 C 182.987 -34.108 294.719 -145.84 304.119 -155.22 C 332.853 -184.02 332.853 -230.64 304.119 -259.44 C 274.946 -287.28 229.043 -287.28 199.869 -259.44 L 164.512 -294.8 C 231.91 -362.08 346.864 -331.17 371.428 -239.16 C 382.808 -196.53 370.629 -151.08 339.464 -119.86 C 330.052 -110.45 218.364 1.215 211.869 7.732 C 188.707 31.013 157.196 44.063 124.357 43.975 Z" style="stroke-width: 25;"/>
    <path d="M 225.672 368.975 L -274.33 368.975 C -301.93 368.946 -324.3 346.577 -324.33 318.975 L -324.33 -181.03 C -324.3 -208.63 -301.93 -231 -274.33 -231.03 L -174.33 -231.03 L -174.33 -181.03 L -274.33 -181.03 L -274.33 318.975 L 225.672 318.975 L 225.672 68.975 L 275.672 68.975 L 275.672 318.975 C 275.643 346.577 253.274 368.946 225.672 368.975 Z" style="stroke-width: 25;"/>
    <rect id="_Transparent_Rectangle_" data-name="&lt;Transparent Rectangle&gt;" class="cls-1" width="800" height="800" style="fill: none; stroke-width: 25;" x="-374.33" y="-381.02"/>
  </g>
</svg>