<?xml version="1.0" encoding="utf-8"?>
<svg width="34" height="34" viewBox="0 0 34 34" fill="none" xmlns="http://www.w3.org/2000/svg">
  <g clip-path="url(#clip0_3431_2144)">
    <path d="M 32.005 -0.012 L 2.005 -0.012 C 0.901 -0.012 0.005 0.884 0.005 1.988 L 0.005 31.988 C 0.005 33.093 0.901 33.988 2.005 33.988 L 32.005 33.988 C 33.11 33.988 34.005 33.093 34.005 31.988 L 34.005 1.988 C 34.005 0.884 33.11 -0.012 32.005 -0.012 Z" fill="#4A7CE8" style="stroke-width: 1;"/>
        <g transform="scale(1.2)" transform-origin="center">
    <path d="M 16.246 17.828 C 14.659 17.828 13.666 16.109 14.459 14.733 C 14.549 14.578 14.659 14.432 14.787 14.306 L 16.917 12.177 C 18.04 11.054 19.957 11.567 20.368 13.101 C 20.559 13.815 20.356 14.574 19.835 15.095 L 19.605 15.325 L 19.013 14.737 L 19.247 14.503 C 19.725 14.023 19.723 13.246 19.245 12.766 C 18.757 12.302 17.993 12.302 17.507 12.766 L 15.377 14.894 C 14.897 15.374 14.897 16.153 15.377 16.633 C 15.865 17.097 16.63 17.097 17.115 16.633 L 17.705 17.223 C 17.32 17.612 16.795 17.828 16.246 17.828 Z" style="stroke-width: 0; fill: rgb(255, 255, 255);"/>
    <path d="M 19.583 16.992 C 17.994 16.994 17.001 15.274 17.796 13.899 C 17.886 13.742 17.996 13.598 18.124 13.47 L 18.354 13.24 L 18.944 13.83 L 18.714 14.06 C 18.232 14.54 18.232 15.319 18.714 15.799 C 19.2 16.263 19.965 16.263 20.453 15.799 C 20.561 15.691 22.425 13.826 22.58 13.671 C 23.06 13.191 23.06 12.413 22.58 11.933 C 22.095 11.469 21.33 11.469 20.842 11.933 L 20.252 11.343 C 21.377 10.22 23.294 10.737 23.703 12.271 C 23.894 12.983 23.689 13.74 23.17 14.261 C 23.013 14.418 21.151 16.281 21.043 16.389 C 20.655 16.778 20.13 16.994 19.583 16.992 Z" style="stroke-width: 0; fill: rgb(255, 255, 255);"/>
    <path d="M 21.273 22.414 L 12.933 22.414 C 12.473 22.414 12.099 22.04 12.099 21.58 L 12.099 13.24 C 12.099 12.78 12.473 12.407 12.933 12.407 L 14.6 12.407 L 14.6 13.24 L 12.933 13.24 L 12.933 21.58 L 21.273 21.58 L 21.273 17.409 L 22.106 17.409 L 22.106 21.58 C 22.106 22.04 21.733 22.414 21.273 22.414 Z" style="stroke-width: 0; fill: rgb(255, 255, 255);"/>
  </g>  </g>
</svg>