<svg width="34" height="34" viewBox="0 0 34 34" fill="none" xmlns="http://www.w3.org/2000/svg">
<g clip-path="url(#clip0_copy_link)">
<path d="M32 0H2C0.89543 0 0 0.89543 0 2V32C0 33.1046 0.89543 34 2 34H32C33.1046 34 34 33.1046 34 32V2C34 0.89543 33.1046 0 32 0Z" fill="#1C58D9"/>
<path d="M12.5 10.5C12.5 9.39543 13.3954 8.5 14.5 8.5H19.5C20.6046 8.5 21.5 9.39543 21.5 10.5V15.5C21.5 16.6046 20.6046 17.5 19.5 17.5H18.5V19.5C18.5 20.6046 17.6046 21.5 16.5 21.5H11.5C10.3954 21.5 9.5 20.6046 9.5 19.5V14.5C9.5 13.3954 10.3954 12.5 11.5 12.5H12.5V10.5Z" fill="white" fill-opacity="0.75"/>
<path d="M14.5 10.5H19.5C19.7761 10.5 20 10.7239 20 11V15.5C20 15.7761 19.7761 16 19.5 16H18.5V14.5C18.5 13.3954 17.6046 12.5 16.5 12.5H15V11C15 10.7239 14.7761 10.5 14.5 10.5Z" fill="white"/>
<path d="M16.5 12.5H11.5C10.3954 12.5 9.5 13.3954 9.5 14.5V19.5C9.5 20.6046 10.3954 21.5 11.5 21.5H16.5C17.6046 21.5 18.5 20.6046 18.5 19.5V14.5C18.5 13.3954 17.6046 12.5 16.5 12.5Z" fill="white"/>
</g>
<defs>
<clipPath id="clip0_copy_link">
<rect width="34" height="34" fill="white"/>
</clipPath>
</defs>
</svg>

